PathFileType	4	(X/Y/Z)	/Users/itak/Documents/Research/Walk-IL/dataset/trc/00554_00009.trc
DataRate	CameraRate	NumFrames	NumMarkers	Units	OrigDataRate	OrigDataStartFrame	OrigNumFrames
100.000000	100.000000	4	53	mm	100.000000	361	482
Frame#	Time	RPSI			LPSI			L3			STRN			T10			C7			CLAV			RBAK			LBAK			LSHO			LUPA			LAEL			LAOL			LWTS			LWPS			LFRA			LIFD			LHPS			LHTS			RSHO			RUPA			RAEL			RAOL			RWTS			RWPS			RFRA			RIFD			RHTS			RHPS			RBHD			LFHD			RFHD			LBHD			RHIP			RASI			LASI			LKNE			LTHI			LANK			LTIP			LTOE			LMT1			LMT5			LHEE			RKNE			RTHI			RANK			RTIP			RTOE			RMT1			RMT5			RHEE			LHIP			
		X1	Y1	Z1	X2	Y2	Z2	X3	Y3	Z3	X4	Y4	Z4	X5	Y5	Z5	X6	Y6	Z6	X7	Y7	Z7	X8	Y8	Z8	X9	Y9	Z9	X10	Y10	Z10	X11	Y11	Z11	X12	Y12	Z12	X13	Y13	Z13	X14	Y14	Z14	X15	Y15	Z15	X16	Y16	Z16	X17	Y17	Z17	X18	Y18	Z18	X19	Y19	Z19	X20	Y20	Z20	X21	Y21	Z21	X22	Y22	Z22	X23	Y23	Z23	X24	Y24	Z24	X25	Y25	Z25	X26	Y26	Z26	X27	Y27	Z27	X28	Y28	Z28	X29	Y29	Z29	X30	Y30	Z30	X31	Y31	Z31	X32	Y32	Z32	X33	Y33	Z33	X34	Y34	Z34	X35	Y35	Z35	X36	Y36	Z36	X37	Y37	Z37	X38	Y38	Z38	X39	Y39	Z39	X40	Y40	Z40	X41	Y41	Z41	X42	Y42	Z42	X43	Y43	Z43	X44	Y44	Z44	X45	Y45	Z45	X46	Y46	Z46	X47	Y47	Z47	X48	Y48	Z48	X49	Y49	Z49	X50	Y50	Z50	X51	Y51	Z51	X52	Y52	Z52	X53	Y53	Z53	

362	3.61	1460.020263671875	1008.755493164062	557.9826049804688	1493.759155273438	1014.6328125	428.8077697753906	1482.96728515625	1109.720825195312	491.8281555175781	1713.953979492188	1299.552856445312	540.1887817382812	1474.93408203125	1235.646728515625	487.9244079589844	1521.96630859375	1509.81640625	511.7039794921875	1694.067016601562	1410.531616210938	537.3065185546875	1433.925659179688	1383.336181640625	578.5299682617188	1506.173095703125	1458.543090820312	415.495849609375	1618.840698242188	1488.0908203125	357.9290161132812	1627.593017578125	1366.112915039062	273.6805419921875	1668.80029296875	1153.978271484375	251.8202362060547	1570.452270507812	1128.90234375	266.9373474121094	1797.974609375	965.82958984375	370.7330322265625	1800.717407226562	925.8218383789062	292.4354248046875	1714.268188476562	1081.3623046875	264.947509765625	1851.899658203125	824.4949951171875	402.8572387695312	1826.522338867188	871.6487426757812	320.0105590820312	1848.944580078125	905.1076049804688	373.5623474121094	1545.675048828125	1472.936889648438	673.6431884765625	1509.183227539062	1411.055419921875	733.9277954101562	1468.763305664062	1129.1884765625	784.72021484375	1417.492065429688	1113.683349609375	748.2099609375	1606.454345703125	911.1414184570312	776.2564697265625	1549.0859375	889.9764404296875	830.5185546875	1475.36669921875	1073.92822265625	795.4762573242188	1631.172485351562	741.3302001953125	780.5899658203125	1635.25341796875	823.1495361328125	799.7765502929688	1569.682495117188	816.2783813476562	834.095458984375	1624.883544921875	1694.235229492188	599.1563110351562	1799.043701171875	1679.8271484375	486.6042785644531	1762.41455078125	1682.354736328125	627.4768676757812	1673.318115234375	1688.5966796875	442.3601684570312	1553.935668945312	939.7273559570312	704.4042358398438	1649.60595703125	974.6487426757812	669.1337890625	1714.611328125	971.98974609375	402.5351257324219	1704.1533203125	503.93017578125	420.614501953125	1694.262939453125	667.4698486328125	377.4928894042969	1618.183471679688	35.62221145629883	420.7958679199219	1646.131591796875	252.6969299316406	412.3867797851562	1805.825439453125	39.61997985839844	537.3973999023438	1725.583129882812	46.3192138671875	549.2122802734375	1738.741088867188	35.99209594726562	441.0344543457031	1538.04736328125	34.83580780029297	454.7662353515625	1640.015502929688	500.3473815917969	677.171142578125	1605.709838867188	789.7161254882812	714.2763061523438	1513.22119140625	40.87847900390625	625.9662475585938	1633.327514648438	353.8201293945312	662.4979858398438	1738.329833984375	42.32806777954102	648.767822265625	1687.4814453125	42.20490646362305	590.811279296875	1635.649658203125	41.29150390625	682.8748779296875	1476.15283203125	28.94575691223145	558.4640502929688	1652.021240234375	942.9995727539062	333.4605712890625	
363	3.62	1461.43505859375	1009.162048339844	558.2442016601562	1495.54443359375	1015.104675292969	429.2809143066406	1484.571044921875	1109.902099609375	492.32470703125	1715.423461914062	1299.794921875	541.1536254882812	1476.51220703125	1235.859375	488.4595336914062	1523.401733398438	1510.069946289062	512.1768188476562	1695.563720703125	1410.790405273438	538.1385498046875	1435.386962890625	1383.594116210938	579.0989990234375	1507.793334960938	1458.670166015625	416.1306762695312	1620.473876953125	1488.152709960938	358.5001220703125	1628.824829101562	1365.815307617188	274.5661315917969	1668.759643554688	1152.544189453125	253.3910064697266	1570.089721679688	1129.226928710938	269.3158264160156	1793.601318359375	958.8953857421875	368.9737243652344	1794.355224609375	919.8980102539062	290.0445556640625	1712.419555664062	1078.337158203125	265.4749755859375	1843.933959960938	816.0028686523438	399.2495422363281	1818.955078125	865.3644409179688	315.9140930175781	1842.630126953125	896.4959106445312	370.4404907226562	1546.992309570312	1473.281616210938	674.26025390625	1510.466918945312	1411.449829101562	734.5789794921875	1470.354614257812	1129.612426757812	785.6793212890625	1419.104614257812	1113.983032226562	749.0935668945312	1607.732543945312	911.2102661132812	777.6799926757812	1550.2939453125	890.3665161132812	831.998779296875	1476.903076171875	1074.338989257812	796.4979248046875	1631.953735351562	741.2952880859375	782.1775512695312	1636.19287109375	823.0969848632812	801.279052734375	1570.544799804688	816.5231323242188	835.6185913085938	1625.2666015625	1694.58935546875	599.40576171875	1800.104858398438	1680.669799804688	487.8578186035156	1762.60986328125	1683.311279296875	628.4751586914062	1674.646362304688	1688.715576171875	442.8185119628906	1554.7255859375	939.8582763671875	705.0333862304688	1650.594848632812	974.6597290039062	670.0152587890625	1716.588623046875	972.2293090820312	403.7182312011719	1703.45068359375	503.8236999511719	420.5308532714844	1694.66162109375	667.5584106445312	377.6011047363281	1618.150634765625	35.69600296020508	420.781494140625	1645.46142578125	252.7475738525391	412.3639831542969	1805.792846679688	39.65033721923828	537.3715209960938	1725.522827148438	46.34460067749023	549.2164306640625	1738.708740234375	36.02364349365234	441.0703735351562	1537.9833984375	34.76736450195312	454.7919921875	1639.812744140625	500.2189025878906	677.5928344726562	1606.577392578125	789.8785400390625	715.1553955078125	1513.21630859375	40.8125	625.9479370117188	1633.272338867188	353.7587890625	662.788818359375	1738.380981445312	42.26377487182617	648.7749633789062	1687.494995117188	42.18074035644531	590.8480834960938	1635.632690429688	41.27234649658203	682.9365234375	1476.141967773438	28.9494686126709	558.4627685546875	1653.967895507812	943.2756958007812	334.3926086425781	
364	3.63	1462.821411132812	1009.538940429688	558.521240234375	1497.30322265625	1015.535522460938	429.7821960449219	1486.14453125	1110.050048828125	492.8258666992188	1716.848999023438	1300.0185546875	542.1259155273438	1478.036865234375	1236.031860351562	488.9904479980469	1524.7607421875	1510.314575195312	512.6035766601562	1697.007080078125	1411.030883789062	538.98681640625	1436.779296875	1383.812377929688	579.6578369140625	1509.377563476562	1458.759887695312	416.7547607421875	1622.0625	1488.141235351562	359.0823974609375	1630.0400390625	1365.460327148438	275.4346923828125	1668.650146484375	1151.1220703125	254.9119873046875	1569.728271484375	1129.523193359375	271.6647644042969	1788.886474609375	951.9755249023438	367.0111389160156	1787.712768554688	914.1553955078125	287.4723815917969	1710.44921875	1075.3447265625	265.9069519042969	1835.560791015625	807.5943603515625	395.4126892089844	1811.0537109375	859.4305419921875	311.4444274902344	1835.907958984375	887.9667358398438	367.0867919921875	1548.235107421875	1473.607055664062	674.851318359375	1511.685180664062	1411.817138671875	735.2295532226562	1471.839965820312	1130.027465820312	786.6512451171875	1420.618530273438	1114.263793945312	749.989501953125	1609.0263671875	911.3780517578125	779.1248168945312	1551.501953125	890.7710571289062	833.4860229492188	1478.359008789062	1074.73291015625	797.5214233398438	1632.83349609375	741.3989868164062	783.7985229492188	1637.230346679688	823.1829833984375	802.8147583007812	1571.52978515625	816.9047241210938	837.257080078125	1625.539306640625	1694.942260742188	599.609375	1801.116455078125	1681.500366210938	489.1332702636719	1762.676025390625	1684.268188476562	629.476806640625	1675.943481445312	1688.788330078125	443.2699584960938	1555.513061523438	939.953857421875	705.6622924804688	1651.616943359375	974.76806640625	671.0606689453125	1718.482299804688	972.3655395507812	404.7592468261719	1702.728759765625	503.6946411132812	420.4236755371094	1695.046752929688	667.637939453125	377.6478271484375	1618.12060546875	35.78127288818359	420.748291015625	1644.78515625	252.7918853759766	412.31005859375	1805.746459960938	39.68263626098633	537.333251953125	1725.456176757812	46.37885284423828	549.21240234375	1738.67578125	36.05276870727539	441.0999450683594	1537.920532226562	34.69070816040039	454.8134765625	1639.602172851562	500.0726013183594	677.972412109375	1607.607299804688	790.08447265625	716.15673828125	1513.21240234375	40.74441146850586	625.9061279296875	1633.225830078125	353.6824951171875	663.0172729492188	1738.424438476562	42.205322265625	648.7732543945312	1687.516235351562	42.14662933349609	590.8668212890625	1635.629638671875	41.2469596862793	682.9615478515625	1476.127319335938	28.93413543701172	558.4410400390625	1655.837890625	943.5095825195312	335.2702331542969	
365	3.64	1464.1708984375	1009.879638671875	558.8255615234375	1499.041625976562	1015.922424316406	430.3113098144531	1487.693603515625	1110.16748046875	493.3290100097656	1718.234130859375	1300.22216796875	543.1031494140625	1479.510131835938	1236.16357421875	489.5285034179688	1526.0419921875	1510.544799804688	512.9892578125	1698.398315429688	1411.25146484375	539.8447875976562	1438.099853515625	1383.981689453125	580.2070922851562	1510.922729492188	1458.811401367188	417.3666687011719	1623.608276367188	1488.055419921875	359.6724548339844	1631.235961914062	1365.043334960938	276.2888793945312	1668.470336914062	1149.723266601562	256.3724365234375	1569.361206054688	1129.791259765625	273.9705505371094	1783.849487304688	945.1309204101562	364.8685607910156	1780.830200195312	908.64599609375	284.7444152832031	1708.364501953125	1072.414916992188	266.2454223632812	1826.801025390625	799.339599609375	391.3737182617188	1802.822387695312	853.7059326171875	306.8297119140625	1828.798217773438	879.5888671875	363.53125	1549.404296875	1473.911743164062	675.416015625	1512.841064453125	1412.158081054688	735.8829345703125	1473.216918945312	1130.422973632812	787.6300048828125	1422.041381835938	1114.531494140625	750.8895263671875	1610.340576171875	911.651123046875	780.6082763671875	1552.709350585938	891.18798828125	834.977783203125	1479.730834960938	1075.108520507812	798.547607421875	1633.804565429688	741.6309814453125	785.4539184570312	1638.358520507812	823.3970336914062	804.3846435546875	1572.626708984375	817.397216796875	838.9876708984375	1625.710815429688	1695.277221679688	599.7628784179688	1802.08154296875	1682.313232421875	490.4256896972656	1762.63671875	1685.216796875	630.484375	1677.209228515625	1688.822509765625	443.7210693359375	1556.31396484375	940.0101318359375	706.2847900390625	1652.64892578125	974.921142578125	672.2074584960938	1720.299194335938	972.4349975585938	405.7096557617188	1702.01416015625	503.5439147949219	420.2998962402344	1695.431274414062	667.7074584960938	377.6383972167969	1618.091552734375	35.87108612060547	420.7027587890625	1644.123901367188	252.8445739746094	412.2008972167969	1805.679443359375	39.71542739868164	537.2816772460938	1725.385009765625	46.42193984985352	549.1994018554688	1738.642822265625	36.08016586303711	441.12353515625	1537.858154296875	34.60697937011719	454.83154296875	1639.397094726562	499.9183349609375	678.2941284179688	1608.712890625	790.287353515625	717.2282104492188	1513.20947265625	40.66877365112305	625.8377075195312	1633.189697265625	353.5938110351562	663.1743774414062	1738.463745117188	42.15193176269531	648.7592163085938	1687.544555664062	42.10058975219727	590.87060546875	1635.639892578125	41.22071075439453	682.94873046875	1476.106079101562	28.89797401428223	558.4036254882812	1657.62158203125	943.6878662109375	336.0750122070312	
